<svg width="32" height="32" viewBox="0 0 32 32" fill="none" xmlns="http://www.w3.org/2000/svg">
<g clip-path="url(#clip0_585_26992)">
<rect width="32" height="32" fill="#18032C"/>
<path d="M21.8038 6.4762L20.9543 11.2343L20.1124 16H23.539C24.2552 16 24.8686 15.4895 24.9943 14.7867L25.6286 11.2343L26.4762 6.4762H21.8038Z" fill="#009DFF"/>
<path d="M19.1791 11.2343L20.0286 6.4762H15.3543L14.5124 11.2343L13.6629 16L12.8133 20.7657H17.4876L18.3371 16L19.1791 11.2343Z" fill="#009DFF"/>
<path d="M10.1486 6.4762C9.43047 6.4762 8.81714 6.98858 8.69333 7.69143L8.06666 11.2343L7.21714 16L6.37523 20.7657L5.5238 25.5238H10.1962L11.0381 20.7657L11.8876 16L12.7295 11.2343L13.5809 6.4762H10.1486Z" fill="white"/>
<path d="M12.8133 20.7657L11.9714 25.5238H16.6362L17.4857 20.7657H12.8133Z" fill="white"/>
</g>
<defs>
<clipPath id="clip0_585_26992">
<rect width="32" height="32" fill="white"/>
</clipPath>
</defs>
</svg>
